#Comment line ignore any data following # character 
#Hierarchical Translation and Rotation (.htr) file 
[Header]	
#Header keywords are followed by a single value 
FileType HTR		#Single word string
DataType HTRS		#Translation followed by rotation and scale data
FileVersion 1		#integer
NumSegments 84		#integer
NumFrames 2		#integer
DataFrameRate 30		#integer, data frame rate in this file
EulerRotationOrder ZYX
CalibrationUnits mm
RotationUnits Degrees
GlobalAxisofGravity Y
BoneLengthAxis Y
ScaleFactor 1.00
[SegmentNames&Hierarchy]
#CHILD	PARENT
MASTER GLOBAL
root MASTER
chest root
L_mid_tent01 root
R_mid_tent01 root
spine01 root
Bip01_Neck chest
L_humerus chest
R_humerus chest
weapon_bone chest
Bip01_Head Bip01_Neck
eye_left_bone Bip01_Head
eye_right_bone Bip01_Head
L_forearm L_humerus
L_front_hand L_forearm
L_weapon_bone L_forearm
L_front_hand01_01 L_front_hand
L_front_hand02_01 L_front_hand
L_front_hand03_01 L_front_hand
L_front_hand01_02 L_front_hand01_01
L_front_hand02_02 L_front_hand02_01
L_front_hand03_02 L_front_hand03_01
R_forearm R_humerus
R_front_hand R_forearm
R_weapon_bone R_forearm
R_front_hand01_01 R_front_hand
R_front_hand02_01 R_front_hand
R_front_hand03_01 R_front_hand
R_front_hand01_02 R_front_hand01_01
R_front_hand02_02 R_front_hand02_01
R_front_hand03_02 R_front_hand03_01
null_rope01_connect L_mid_tent01
Rope1_Seg01 null_rope01_connect
Rope1_Seg02 Rope1_Seg01
Rope1_Seg03 Rope1_Seg02
Rope1_Seg04 Rope1_Seg03
Rope1_Seg05 Rope1_Seg04
Rope1_Seg06 Rope1_Seg05
Rope1_Seg07 Rope1_Seg06
Rope1_Seg09 Rope1_Seg07
L_mid_hand01 Rope1_Seg09
L_mid_hand02 Rope1_Seg09
L_mid_hand03 Rope1_Seg09
null_rope02_connect R_mid_tent01
Rope2_Seg01 null_rope02_connect
Rope2_Seg02 Rope2_Seg01
Rope2_Seg03 Rope2_Seg02
Rope2_Seg04 Rope2_Seg03
Rope2_Seg05 Rope2_Seg04
Rope2_Seg06 Rope2_Seg05
Rope2_Seg07 Rope2_Seg06
Rope2_Seg09 Rope2_Seg07
R_mid_hand01 Rope2_Seg09
R_mid_hand02 Rope2_Seg09
R_mid_hand03 Rope2_Seg09
spine02 spine01
spine03 spine02
pelvis spine03
null_rope03_connect pelvis
null_rope04_connect pelvis
Rope3_Seg01 null_rope03_connect
Rope3_Seg02 Rope3_Seg01
Rope3_Seg03 Rope3_Seg02
Rope3_Seg04 Rope3_Seg03
Rope3_Seg05 Rope3_Seg04
Rope3_Seg06 Rope3_Seg05
Rope3_Seg07 Rope3_Seg06
Rope3_Seg08 Rope3_Seg07
Rope3_Seg09 Rope3_Seg08
R_rear_hand01 Rope3_Seg09
R_rear_hand02 Rope3_Seg09
R_rear_hand03 Rope3_Seg09
Rope4_Seg01 null_rope04_connect
Rope4_Seg02 Rope4_Seg01
Rope4_Seg03 Rope4_Seg02
Rope4_Seg04 Rope4_Seg03
Rope4_Seg05 Rope4_Seg04
Rope4_Seg06 Rope4_Seg05
Rope4_Seg07 Rope4_Seg06
Rope4_Seg08 Rope4_Seg07
Rope4_Seg09 Rope4_Seg08
L_rear_hand01 Rope4_Seg09
L_rear_hand02 Rope4_Seg09
L_rear_hand03 Rope4_Seg09
[BasePosition]
#SegmentName Tx, Ty, Tz, Rx, Ry, Rz, BoneLength
MASTER 0.000000 0.000000 0.000000 -90.000000 0.000000 0.000000 10.000000 
root 0.000000 0.000000 0.000000 0.000000 0.000000 0.000000 10.000000 
chest 0.000000 0.000000 0.000000 0.000000 0.000000 0.000000 10.000000 
L_mid_tent01 0.000000 0.000000 0.000000 0.000000 0.000000 0.000000 10.000000 
R_mid_tent01 0.000000 0.000000 0.000000 0.000000 0.000000 0.000000 10.000000 
spine01 0.000000 0.000000 0.000000 0.000000 0.000000 0.000000 10.000000 
Bip01_Neck 0.000000 0.000000 0.000000 0.000000 0.000000 0.000000 10.000000 
L_humerus 0.000000 0.000000 0.000000 0.000000 0.000000 0.000000 10.000000 
R_humerus 0.000000 0.000000 0.000000 0.000000 0.000000 0.000000 10.000000 
weapon_bone 0.000000 0.000000 0.000000 0.000000 0.000000 0.000000 10.000000 
Bip01_Head 0.000000 0.000000 0.000000 0.000000 0.000000 0.000000 10.000000 
eye_left_bone 0.000000 0.000000 0.000000 0.000000 0.000000 0.000000 10.000000 
eye_right_bone 0.000000 0.000000 0.000000 0.000000 0.000000 0.000000 10.000000 
L_forearm 0.000000 0.000000 0.000000 0.000000 0.000000 0.000000 10.000000 
L_front_hand 0.000000 0.000000 0.000000 0.000000 0.000000 0.000000 10.000000 
L_weapon_bone 0.000000 0.000000 0.000000 0.000000 0.000000 0.000000 10.000000 
L_front_hand01_01 0.000000 0.000000 0.000000 0.000000 0.000000 0.000000 10.000000 
L_front_hand02_01 0.000000 0.000000 0.000000 0.000000 0.000000 0.000000 10.000000 
L_front_hand03_01 0.000000 0.000000 0.000000 0.000000 0.000000 0.000000 10.000000 
L_front_hand01_02 0.000000 0.000000 0.000000 0.000000 0.000000 0.000000 10.000000 
L_front_hand02_02 0.000000 0.000000 0.000000 0.000000 0.000000 0.000000 10.000000 
L_front_hand03_02 0.000000 0.000000 0.000000 0.000000 0.000000 0.000000 10.000000 
R_forearm 0.000000 0.000000 0.000000 0.000000 0.000000 0.000000 10.000000 
R_front_hand 0.000000 0.000000 0.000000 0.000000 0.000000 0.000000 10.000000 
R_weapon_bone 0.000000 0.000000 0.000000 0.000000 0.000000 0.000000 10.000000 
R_front_hand01_01 0.000000 0.000000 0.000000 0.000000 0.000000 0.000000 10.000000 
R_front_hand02_01 0.000000 0.000000 0.000000 0.000000 0.000000 0.000000 10.000000 
R_front_hand03_01 0.000000 0.000000 0.000000 0.000000 0.000000 0.000000 10.000000 
R_front_hand01_02 0.000000 0.000000 0.000000 0.000000 0.000000 0.000000 10.000000 
R_front_hand02_02 0.000000 0.000000 0.000000 0.000000 0.000000 0.000000 10.000000 
R_front_hand03_02 0.000000 0.000000 0.000000 0.000000 0.000000 0.000000 10.000000 
null_rope01_connect 0.000000 0.000000 0.000000 0.000000 0.000000 0.000000 10.000000 
Rope1_Seg01 0.000000 0.000000 0.000000 0.000000 0.000000 0.000000 10.000000 
Rope1_Seg02 0.000000 0.000000 0.000000 0.000000 0.000000 0.000000 10.000000 
Rope1_Seg03 0.000000 0.000000 0.000000 0.000000 0.000000 0.000000 10.000000 
Rope1_Seg04 0.000000 0.000000 0.000000 0.000000 0.000000 0.000000 10.000000 
Rope1_Seg05 0.000000 0.000000 0.000000 0.000000 0.000000 0.000000 10.000000 
Rope1_Seg06 0.000000 0.000000 0.000000 0.000000 0.000000 0.000000 10.000000 
Rope1_Seg07 0.000000 0.000000 0.000000 0.000000 0.000000 0.000000 10.000000 
Rope1_Seg09 0.000000 0.000000 0.000000 0.000000 0.000000 0.000000 10.000000 
L_mid_hand01 0.000000 0.000000 0.000000 0.000000 0.000000 0.000000 10.000000 
L_mid_hand02 0.000000 0.000000 0.000000 0.000000 0.000000 0.000000 10.000000 
L_mid_hand03 0.000000 0.000000 0.000000 0.000000 0.000000 0.000000 10.000000 
null_rope02_connect 0.000000 0.000000 0.000000 0.000000 0.000000 0.000000 10.000000 
Rope2_Seg01 0.000000 0.000000 0.000000 0.000000 0.000000 0.000000 10.000000 
Rope2_Seg02 0.000000 0.000000 0.000000 0.000000 0.000000 0.000000 10.000000 
Rope2_Seg03 0.000000 0.000000 0.000000 0.000000 0.000000 0.000000 10.000000 
Rope2_Seg04 0.000000 0.000000 0.000000 0.000000 0.000000 0.000000 10.000000 
Rope2_Seg05 0.000000 0.000000 0.000000 0.000000 0.000000 0.000000 10.000000 
Rope2_Seg06 0.000000 0.000000 0.000000 0.000000 0.000000 0.000000 10.000000 
Rope2_Seg07 0.000000 0.000000 0.000000 0.000000 0.000000 0.000000 10.000000 
Rope2_Seg09 0.000000 0.000000 0.000000 0.000000 0.000000 0.000000 10.000000 
R_mid_hand01 0.000000 0.000000 0.000000 0.000000 0.000000 0.000000 10.000000 
R_mid_hand02 0.000000 0.000000 0.000000 0.000000 0.000000 0.000000 10.000000 
R_mid_hand03 0.000000 0.000000 0.000000 0.000000 0.000000 0.000000 10.000000 
spine02 0.000000 0.000000 0.000000 0.000000 0.000000 0.000000 10.000000 
spine03 0.000000 0.000000 0.000000 0.000000 0.000000 0.000000 10.000000 
pelvis 0.000000 0.000000 0.000000 0.000000 0.000000 0.000000 10.000000 
null_rope03_connect 0.000000 0.000000 0.000000 0.000000 0.000000 0.000000 10.000000 
null_rope04_connect 0.000000 0.000000 0.000000 0.000000 0.000000 0.000000 10.000000 
Rope3_Seg01 0.000000 0.000000 0.000000 0.000000 0.000000 0.000000 10.000000 
Rope3_Seg02 0.000000 0.000000 0.000000 0.000000 0.000000 0.000000 10.000000 
Rope3_Seg03 0.000000 0.000000 0.000000 0.000000 0.000000 0.000000 10.000000 
Rope3_Seg04 0.000000 0.000000 0.000000 0.000000 0.000000 0.000000 10.000000 
Rope3_Seg05 0.000000 0.000000 0.000000 0.000000 0.000000 0.000000 10.000000 
Rope3_Seg06 0.000000 0.000000 0.000000 0.000000 0.000000 0.000000 10.000000 
Rope3_Seg07 0.000000 0.000000 0.000000 0.000000 0.000000 0.000000 10.000000 
Rope3_Seg08 0.000000 0.000000 0.000000 0.000000 0.000000 0.000000 10.000000 
Rope3_Seg09 0.000000 0.000000 0.000000 0.000000 0.000000 0.000000 10.000000 
R_rear_hand01 0.000000 0.000000 0.000000 0.000000 0.000000 0.000000 10.000000 
R_rear_hand02 0.000000 0.000000 0.000000 0.000000 0.000000 0.000000 10.000000 
R_rear_hand03 0.000000 0.000000 0.000000 0.000000 0.000000 0.000000 10.000000 
Rope4_Seg01 0.000000 0.000000 0.000000 0.000000 0.000000 0.000000 10.000000 
Rope4_Seg02 0.000000 0.000000 0.000000 0.000000 0.000000 0.000000 10.000000 
Rope4_Seg03 0.000000 0.000000 0.000000 0.000000 0.000000 0.000000 10.000000 
Rope4_Seg04 0.000000 0.000000 0.000000 0.000000 0.000000 0.000000 10.000000 
Rope4_Seg05 0.000000 0.000000 0.000000 0.000000 0.000000 0.000000 10.000000 
Rope4_Seg06 0.000000 0.000000 0.000000 0.000000 0.000000 0.000000 10.000000 
Rope4_Seg07 0.000000 0.000000 0.000000 0.000000 0.000000 0.000000 10.000000 
Rope4_Seg08 0.000000 0.000000 0.000000 0.000000 0.000000 0.000000 10.000000 
Rope4_Seg09 0.000000 0.000000 0.000000 0.000000 0.000000 0.000000 10.000000 
L_rear_hand01 0.000000 0.000000 0.000000 0.000000 0.000000 0.000000 10.000000 
L_rear_hand02 0.000000 0.000000 0.000000 0.000000 0.000000 0.000000 10.000000 
L_rear_hand03 0.000000 0.000000 0.000000 0.000000 0.000000 0.000000 10.000000 
#Beginning of Data. Separated by tabs
#Fr	Tx	Ty	Tz	Rx	Ry	Rz	SF
[MASTER]
36 -6310.416504 8872.355469 -143.250031 0.001660 0.001660 0.001660 10888.551758
37 -6428.428711 9117.537109 -141.046524 0.001660 0.001660 0.001660 11156.795898
[root]
36 -16.500854 -39.983692 1483.185059 -91.657944 -22.583801 -89.834457 1483.815552
37 -16.500549 -26.731514 1473.789551 -91.678131 -19.629181 -89.730118 1474.124268
[chest]
36 -84.512650 -34.090519 0.000000 -8.734009 -12.864648 168.547043 91.129311
37 -84.512650 -34.090519 0.000000 -7.427941 -10.310492 168.364655 91.129311
[L_mid_tent01]
36 27.298645 22.178993 -249.919342 -15.767223 24.239361 36.281116 252.382248
37 27.298634 22.178986 -249.919357 -17.200375 21.961676 31.378597 252.382263
[R_mid_tent01]
36 23.228794 24.509907 226.238495 -173.205643 -34.223408 45.774204 228.744751
37 23.228794 24.509907 226.238495 -170.874084 -31.068476 40.777462 228.744751
[spine01]
36 -0.361383 -0.195265 0.000000 0.001968 0.001279 23.978539 0.410763
37 -0.361383 -0.195265 0.000000 0.001964 0.001286 23.555357 0.410763
[Bip01_Neck]
36 165.484543 71.581718 0.000119 176.643677 -1.657967 43.431911 180.302734
37 165.484543 71.581718 0.000119 176.643677 -1.657967 43.431911 180.302734
[L_humerus]
36 -13.983130 -135.272980 -120.471481 -5.671669 68.382523 84.358833 181.680161
37 -13.983130 -135.272980 -120.471481 -5.604102 68.550430 84.434753 181.680161
[R_humerus]
36 -13.983309 -135.273102 125.287651 27.613773 -69.383003 68.040710 184.909012
37 -13.983309 -135.273102 125.287651 27.711166 -69.553841 67.940948 184.909012
[weapon_bone]
36 235.964890 -300.705902 0.000000 0.000000 -89.951546 -128.212341 382.234833
37 235.964890 -300.705902 0.000000 0.000000 -89.951546 -128.212341 382.234833
[Bip01_Head]
36 213.326508 186.042053 7.558879 5.200446 6.151311 -43.834991 283.155396
37 213.326477 186.042007 7.558823 5.200446 6.151311 -43.834991 283.155365
[eye_left_bone]
36 -24.626970 125.451866 -64.772606 0.000000 -90.000000 -99.840431 143.318359
37 -24.626970 125.451866 -64.772606 0.000000 -90.000000 -99.840431 143.318359
[eye_right_bone]
36 -24.626970 125.451866 64.327362 0.000000 -89.965736 80.156380 143.117676
37 -24.626970 125.451866 64.327362 0.000000 -89.965736 80.156380 143.117676
[L_forearm]
36 322.776093 0.000000 -0.000119 0.000399 -0.002313 -109.593559 322.776093
37 322.776093 0.000000 -0.000119 0.000398 -0.002313 -109.537056 322.776093
[L_front_hand]
36 241.149185 -0.042021 -3.300071 -178.667953 -1.835447 -27.422350 241.171753
37 241.149185 -0.042021 -3.300071 -178.667953 -1.835447 -27.422342 241.171753
[L_weapon_bone]
36 156.183838 0.000000 0.000000 0.000014 0.000007 0.000001 156.183838
37 156.183838 0.000000 0.000000 0.000014 0.000007 0.000001 156.183838
[L_front_hand01_01]
36 86.095154 20.947098 -0.655860 -0.366594 -0.477154 75.385574 88.609184
37 86.095154 20.947098 -0.655860 -0.366594 -0.477154 75.385574 88.609184
[L_front_hand02_01]
36 86.935165 -11.437475 24.513514 154.399796 -59.883835 -61.369587 91.046425
37 86.935165 -11.437475 24.513514 154.399796 -59.883835 -61.369587 91.046425
[L_front_hand03_01]
36 86.637497 -14.123976 -20.424902 -153.913849 58.118130 -62.702866 90.126129
37 86.637497 -14.123976 -20.424902 -153.913849 58.118122 -62.702866 90.126129
[L_front_hand01_02]
36 71.020905 -0.000179 0.000030 0.000332 -0.002324 -106.274635 71.020905
37 71.020905 -0.000179 0.000030 0.000333 -0.002323 -106.308632 71.020905
[L_front_hand02_02]
36 71.020927 -0.000119 0.000060 0.000332 -0.002324 -106.274635 71.020927
37 71.020927 -0.000119 0.000060 0.000333 -0.002323 -106.308632 71.020927
[L_front_hand03_02]
36 71.020905 -0.000060 0.000060 0.000332 -0.002324 -106.274635 71.020905
37 71.020905 -0.000060 0.000060 0.000333 -0.002323 -106.308632 71.020905
[R_forearm]
36 322.776428 -0.000060 0.000030 0.202002 0.065470 -108.239906 322.776428
37 322.776428 -0.000060 0.000030 0.202033 0.065373 -108.184967 322.776428
[R_front_hand]
36 238.847015 -0.006795 2.210259 -2.635298 -10.645461 -26.312506 238.857239
37 238.847015 -0.006795 2.210259 -2.635298 -10.645461 -26.312506 238.857239
[R_weapon_bone]
36 155.664093 0.002503 -0.000030 0.003487 0.001180 -90.988930 155.664078
37 155.664093 0.002503 -0.000030 0.003487 0.001180 -90.988930 155.664078
[R_front_hand01_01]
36 87.624611 14.231146 22.918642 -154.633484 -59.950619 61.746037 91.683487
37 87.624611 14.231146 22.918642 -154.633484 -59.950619 61.746037 91.683487
[R_front_hand02_01]
36 89.356956 14.367283 -19.491137 154.602661 58.302849 63.744389 92.579636
37 89.356956 14.367283 -19.491137 154.602661 58.302849 63.744389 92.579636
[R_front_hand03_01]
36 87.286232 -22.307278 -0.143439 0.162155 -0.423168 -75.767921 90.091743
37 87.286232 -22.307278 -0.143439 0.162155 -0.423168 -75.767921 90.091743
[R_front_hand01_02]
36 71.020905 0.000060 0.000119 0.002323 -0.000334 106.381714 71.020905
37 71.020905 0.000060 0.000119 0.002323 -0.000334 106.381714 71.020905
[R_front_hand02_02]
36 71.020844 -0.000030 -0.000119 0.002323 -0.000334 106.381714 71.020836
37 71.020844 -0.000030 -0.000119 0.002323 -0.000334 106.381714 71.020836
[R_front_hand03_02]
36 71.020905 0.000000 0.000030 0.002323 -0.000334 106.381714 71.020905
37 71.020905 0.000000 0.000030 0.002323 -0.000334 106.381714 71.020905
[null_rope01_connect]
36 328.732483 0.000000 -0.000238 -139.382111 -59.885296 -147.546875 328.732483
37 328.732483 0.000000 -0.000238 -142.748047 -60.946556 -142.176590 328.732483
[Rope1_Seg01]
36 0.000000 0.000000 0.000000 65.022354 -18.462271 -132.956497 0.000000
37 0.000000 0.000000 0.000000 58.404305 -15.823558 -127.354958 0.000000
[Rope1_Seg02]
36 139.999863 -0.000179 0.000000 -11.735767 15.961101 -9.063773 139.999863
37 139.999863 -0.000179 0.000000 -10.529428 12.595362 -5.441678 139.999863
[Rope1_Seg03]
36 139.999924 0.000060 -0.000060 -19.739820 12.170777 -4.299248 139.999924
37 139.999924 0.000060 -0.000060 -15.816620 10.751499 -3.401831 139.999924
[Rope1_Seg04]
36 139.999924 -0.000060 -0.000119 -26.908043 8.427490 0.307125 139.999924
37 139.999924 -0.000060 -0.000119 -21.940052 7.917592 0.964233 139.999924
[Rope1_Seg05]
36 139.999832 0.000119 -0.000060 -23.797268 5.021498 3.228910 139.999832
37 139.999832 0.000119 -0.000060 -14.072062 2.686831 4.057480 139.999832
[Rope1_Seg06]
36 139.999954 0.000119 -0.000060 -15.272865 2.499634 3.660208 139.999954
37 139.999954 0.000119 -0.000060 -8.075540 1.303871 2.989119 139.999954
[Rope1_Seg07]
36 139.999985 0.000060 0.000000 -8.840411 1.063085 3.010362 139.999985
37 139.999985 0.000060 0.000000 -5.174389 0.792025 2.149349 139.999985
[Rope1_Seg09]
36 121.602913 0.000119 -0.000089 -89.793175 -1.359789 0.847147 121.602913
37 121.602913 0.000119 -0.000089 -89.793175 -1.359789 0.847147 121.602913
[L_mid_hand01]
36 103.859421 1.038730 8.195221 130.544373 -67.584534 -38.866943 104.187431
37 103.859421 1.038730 8.195221 130.544373 -67.584534 -38.866943 104.187431
[L_mid_hand02]
36 105.572853 -4.139662 -10.864139 -168.923172 43.409309 -73.498886 106.211075
37 105.572853 -4.139662 -10.864139 -168.923172 43.409309 -73.498886 106.211075
[L_mid_hand03]
36 104.641464 17.579376 -3.913581 -6.012627 17.808174 74.893669 106.179977
37 104.641464 17.579376 -3.913581 -6.012626 17.808172 74.893661 106.179977
[null_rope02_connect]
36 328.732849 0.000179 -0.000119 -123.677887 56.441319 -8.090028 328.732849
37 328.732849 0.000179 -0.000119 -126.693398 58.938660 -12.704552 328.732849
[Rope2_Seg01]
36 0.000072 0.000019 0.000000 170.278336 39.257412 -56.230934 0.000074
37 0.000072 0.000015 0.000000 160.546585 30.983343 -54.235214 0.000074
[Rope2_Seg02]
36 139.999741 -0.000060 -0.000119 40.269726 8.473123 -14.133261 139.999756
37 139.999741 -0.000060 -0.000119 20.049591 10.404948 -6.431106 139.999756
[Rope2_Seg03]
36 140.000107 0.000030 0.000000 52.907497 -2.101891 -13.599417 140.000107
37 140.000107 0.000030 0.000000 127.513962 5.803905 -9.759238 140.000107
[Rope2_Seg04]
36 139.999802 0.000000 -0.000060 14.459733 -6.682551 -3.129289 139.999802
37 139.999802 0.000000 -0.000060 21.412390 -3.223538 -2.863845 139.999802
[Rope2_Seg05]
36 139.999985 -0.000060 0.000119 4.137465 -4.878209 -0.035931 139.999985
37 139.999985 -0.000060 0.000119 34.086647 -1.280985 -6.389285 139.999985
[Rope2_Seg06]
36 139.999893 -0.000030 -0.000119 4.100079 -6.077247 -0.032693 139.999893
37 139.999893 -0.000030 -0.000119 15.379329 -4.599528 -2.347819 139.999893
[Rope2_Seg07]
36 139.999893 0.000060 -0.000060 2.306628 -4.808677 0.281088 139.999893
37 139.999893 0.000060 -0.000060 5.749839 -3.042452 -0.626700 139.999893
[Rope2_Seg09]
36 121.338966 0.000089 -0.000060 33.793236 -1.359788 -0.847141 121.338966
37 121.338966 0.000089 -0.000060 33.793236 -1.359788 -0.847141 121.338966
[R_mid_hand01]
36 104.680779 11.144459 -10.335981 -16.212059 45.237240 70.462852 105.778534
37 104.680779 11.144459 -10.335981 -16.212063 45.237247 70.462852 105.778534
[R_mid_hand02]
36 104.070427 2.443552 8.231699 49.067368 -67.749771 39.286453 104.424065
37 104.070427 2.443552 8.231699 49.067368 -67.749771 39.286453 104.424065
[R_mid_hand03]
36 106.028137 -11.221827 -5.996406 -177.101105 15.551026 -76.585571 106.788818
37 106.028137 -11.221827 -5.996406 -177.101105 15.551026 -76.585571 106.788818
[spine02]
36 129.756927 0.001550 0.000119 0.376072 -4.043172 -13.159690 129.756927
37 129.756927 0.001550 0.000119 0.370442 -4.043746 -13.069825 129.756927
[spine03]
36 78.614449 0.081654 -4.899255 1.905061 3.828187 16.631649 78.767006
37 78.614456 0.081650 -4.899263 1.901699 3.829284 16.579878 78.767014
[pelvis]
36 169.435242 0.051022 0.000000 -0.060943 -0.180064 14.391958 169.435257
37 169.435242 0.051022 0.000000 -0.060794 -0.180115 14.297258 169.435257
[null_rope03_connect]
36 -1.257226 -2.466202 137.391083 0.000000 -89.529778 70.769157 137.418976
37 -1.257226 -2.466202 137.391083 0.000000 -89.538605 68.304619 137.418976
[null_rope04_connect]
36 -1.259640 -2.480268 -137.844437 0.000000 -89.529778 70.769157 137.872513
37 -1.259640 -2.480268 -137.844437 0.000000 -89.538605 68.304619 137.872513
[Rope3_Seg01]
36 0.000011 -0.000525 -0.000153 -130.593140 -2.119586 -78.915764 0.000546
37 0.000010 -0.000542 -0.000153 -130.956482 5.373500 -80.988808 0.000563
[Rope3_Seg02]
36 139.999924 -0.000119 0.000060 0.146641 -3.142240 -1.857769 139.999924
37 139.999924 -0.000119 0.000060 0.062919 -2.703180 -2.176660 139.999924
[Rope3_Seg03]
36 139.999924 -0.000119 0.000119 0.095233 -2.103267 -4.017479 139.999924
37 139.999924 -0.000119 0.000119 0.141981 -2.408480 -4.083281 139.999924
[Rope3_Seg04]
36 139.999924 0.000119 0.000000 0.261338 -2.598332 -0.761138 139.999924
37 139.999924 0.000119 0.000000 0.094513 -2.267170 -2.191686 139.999924
[Rope3_Seg05]
36 139.999924 -0.000238 0.000060 0.792364 -5.441335 10.430952 139.999924
37 139.999924 -0.000238 0.000060 0.350370 -2.254732 9.245210 139.999924
[Rope3_Seg06]
36 139.999893 -0.000119 -0.000060 0.215782 -4.515689 8.906384 139.999893
37 139.999893 -0.000119 -0.000060 -0.011805 -1.732932 8.090751 139.999893
[Rope3_Seg07]
36 139.999771 0.000060 -0.000119 -0.035147 -3.424640 6.364047 139.999771
37 139.999771 0.000060 -0.000119 -0.078191 -1.351389 5.088799 139.999771
[Rope3_Seg08]
36 139.999985 -0.000060 0.000000 0.128294 -1.862754 3.472435 139.999985
37 139.999985 -0.000060 0.000000 0.008860 -0.913997 3.439467 139.999985
[Rope3_Seg09]
36 90.185997 -0.000179 -0.000060 89.793228 -1.359877 -0.847183 90.185997
37 90.185997 -0.000179 -0.000060 89.793228 -1.359877 -0.847183 90.185997
[R_rear_hand01]
36 103.366196 -6.073594 -10.757982 -177.714203 24.565960 -73.910950 104.101845
37 103.366196 -6.073594 -10.757982 -177.714203 24.565960 -73.910950 104.101845
[R_rear_hand02]
36 100.509819 12.039542 -7.992327 -12.874829 36.868488 72.167213 101.543350
37 100.509819 12.039542 -7.992327 -12.874829 36.868488 72.167213 101.543350
[R_rear_hand03]
36 101.539970 5.215704 5.435467 71.484581 -71.816628 21.513813 101.819031
37 101.539970 5.215704 5.435467 71.484581 -71.816628 21.513813 101.819031
[Rope4_Seg01]
36 -0.000007 -0.001073 -0.000153 46.503345 10.086071 -116.197731 0.001084
37 -0.000008 -0.001102 -0.000153 45.675823 15.301813 -116.215317 0.001113
[Rope4_Seg02]
36 139.999985 0.000060 0.000119 0.393466 0.725203 2.501972 139.999985
37 139.999985 0.000060 0.000119 0.392384 1.375813 3.281102 139.999985
[Rope4_Seg03]
36 139.999924 0.000000 -0.000238 0.612630 1.063930 5.014248 139.999924
37 139.999924 0.000000 -0.000238 0.443780 2.247880 5.617174 139.999924
[Rope4_Seg04]
36 139.999985 0.000000 0.000119 0.627037 2.159409 16.617901 139.999985
37 139.999985 0.000000 0.000119 -0.518330 5.127580 20.866995 139.999985
[Rope4_Seg05]
36 139.999802 -0.000060 -0.000119 -1.464988 11.160756 -29.643059 139.999802
37 139.999802 -0.000060 -0.000119 2.717930 5.540833 -21.530781 139.999802
[Rope4_Seg06]
36 139.999924 0.000000 0.000060 -0.139625 4.344963 -12.206753 139.999924
37 139.999924 0.000000 0.000060 1.084812 1.109764 -14.758238 139.999924
[Rope4_Seg07]
36 139.999802 0.000000 0.000000 0.057453 2.133666 -5.509820 139.999802
37 139.999802 0.000000 0.000000 0.205677 0.755048 -5.860306 139.999802
[Rope4_Seg08]
36 139.999924 0.000000 0.000119 -1.457136 0.648104 -1.678426 139.999924
37 139.999924 0.000000 0.000119 -1.466909 0.360512 -2.886823 139.999924
[Rope4_Seg09]
36 90.185791 0.000060 0.000060 -135.617828 2.228885 0.850567 90.185791
37 90.185791 0.000060 0.000060 -135.617828 2.228885 0.850567 90.185791
[L_rear_hand01]
36 101.696655 -8.392275 -7.654577 -12.874829 -36.868488 107.832764 102.329041
37 101.696655 -8.392275 -7.654577 -12.874829 -36.868488 107.832764 102.329041
[L_rear_hand02]
36 102.726799 -1.568258 5.773216 71.484581 71.816628 158.486160 102.900848
37 102.726799 -1.568258 5.773216 71.484581 71.816628 158.486160 102.900848
[L_rear_hand03]
36 104.552910 9.721220 -10.420293 -177.714203 -24.565960 -106.089035 105.519653
37 104.552910 9.721220 -10.420293 -177.714203 -24.565960 -106.089035 105.519653
